<?xml version="1.0" encoding="UTF-8"?>
<svg version="1.1" xmlns="http://www.w3.org/2000/svg" width="512" height="512">
<path d="M0 0 C1.35158203 1.14275391 1.35158203 1.14275391 2.73046875 2.30859375 C3.88095703 3.25025391 3.88095703 3.25025391 5.0546875 4.2109375 C9.77774062 8.17830212 13.84923151 12.52091045 17.73046875 17.30859375 C18.43042969 18.17097656 19.13039063 19.03335938 19.8515625 19.921875 C42.31017573 48.68602609 49.8126453 82.5222539 46.43017578 118.50292969 C42.01994913 150.69477517 24.10609775 177.35298036 0.60253906 198.96948242 C-1.26953125 200.30859375 -1.26953125 200.30859375 -4.25878906 201.5168457 C-7.98536968 203.25564061 -11.02930902 204.8152073 -13.26953125 208.30859375 C-15.45435621 216.30812971 -14.62567169 225.04234182 -14.39453125 233.24609375 C-14.35110051 236.66626447 -14.32449757 240.08610026 -14.30490112 243.50648499 C-14.28700441 245.62815702 -14.25241951 247.74977786 -14.19827271 249.87083435 C-14.04068466 258.01261706 -14.54776007 265.45924872 -19.20703125 272.37109375 C-21.89360111 276.59562751 -23.63224521 280.60664411 -25.26953125 285.30859375 C-31.45641196 301.99231702 -40.574388 313.81245271 -56.78125 321.5 C-71.80121265 327.88996841 -87.18651366 327.90043478 -102.4765625 322.08984375 C-109.87947593 318.66872843 -115.56767273 314.09219935 -121.26953125 308.30859375 C-121.84445313 307.74398438 -122.419375 307.179375 -123.01171875 306.59765625 C-129.98962493 299.18589062 -133.30011718 289.52361768 -136.26953125 279.984375 C-137.42672671 276.8879731 -138.99991887 274.73474611 -141.0300293 272.17024231 C-145.7935819 265.01570672 -145.61268485 256.45721491 -145.39453125 248.203125 C-145.37783358 245.89780244 -145.36358316 243.59246107 -145.3515625 241.28710938 C-145.31856787 237.69143376 -145.26896341 234.09883822 -145.17724609 230.50415039 C-144.17064333 217.23143932 -144.17064333 217.23143932 -148.54785156 205.34912109 C-151.40008102 203.57657386 -154.11972706 202.44749835 -157.26953125 201.30859375 C-159.27929688 199.81958008 -159.27929688 199.81958008 -160.94140625 198.24609375 C-161.45654785 197.76358154 -161.97168945 197.28106934 -162.50244141 196.78393555 C-163.00308105 196.29707275 -163.5037207 195.81020996 -164.01953125 195.30859375 C-164.57044434 194.78370361 -165.12135742 194.25881348 -165.68896484 193.71801758 C-166.75896389 192.69564789 -167.82544397 191.66957746 -168.88769531 190.63916016 C-169.99298875 189.57487584 -171.12343258 188.53673392 -172.26171875 187.5078125 C-192.83598635 168.45938771 -205.29701799 137.54760147 -207.17578125 109.8828125 C-207.20671875 109.03332031 -207.23765625 108.18382812 -207.26953125 107.30859375 C-207.32109375 106.18066406 -207.37265625 105.05273438 -207.42578125 103.890625 C-208.29071744 67.95973412 -194.85116651 35.11412844 -170.1484375 9.19140625 C-125.29763613 -36.4998701 -49.39451591 -40.12913143 0 0 Z M-159.26953125 20.30859375 C-159.86121094 20.82421875 -160.45289063 21.33984375 -161.0625 21.87109375 C-181.13567507 40.18011805 -190.90243296 69.58058465 -192.48828125 95.9453125 C-193.28068516 127.01414906 -180.8253718 156.2947668 -159.80859375 178.87109375 C-152.10243219 186.26900885 -143.44130274 192.49946304 -134.28125 197.96875 C-132.26953125 199.30859375 -132.26953125 199.30859375 -131.26953125 201.30859375 C-131.03764697 203.85645803 -130.8508675 206.38110525 -130.70703125 208.93359375 C-130.56265625 211.36734375 -130.41828125 213.80109375 -130.26953125 216.30859375 C-125.31953125 216.30859375 -120.36953125 216.30859375 -115.26953125 216.30859375 C-115.26953125 185.28859375 -115.26953125 154.26859375 -115.26953125 122.30859375 C-120.21953125 124.28859375 -120.21953125 124.28859375 -125.26953125 126.30859375 C-132.52134564 127.57243159 -138.70291351 126.50477358 -145.078125 122.8515625 C-151.46869459 118.35196359 -154.63799572 112.90883011 -156.26953125 105.30859375 C-157.07588766 97.91699333 -155.21519271 90.31657261 -150.58203125 84.43359375 C-145.07825683 78.71398503 -138.91488078 76.64190099 -131.0703125 76.21875 C-123.46515379 76.46270907 -117.43207193 78.93380726 -111.96484375 84.24609375 C-106.18167993 91.28183223 -105.89608199 98.28818015 -106.6171875 107.109375 C-106.62175388 110.50039549 -106.62175388 110.50039549 -103.78901672 112.39360046 C-100.20118123 116.54465292 -100.56054931 119.82485165 -100.61010742 125.14770508 C-100.59962372 126.13354584 -100.58914001 127.1193866 -100.57833862 128.13510132 C-100.5495825 131.38726247 -100.55588109 134.63835945 -100.5625 137.890625 C-100.54938537 140.14793737 -100.53408188 142.40523799 -100.51667786 144.66252136 C-100.47678793 150.5989703 -100.46663477 156.53511253 -100.46264648 162.47167969 C-100.45332268 168.53134489 -100.41591377 174.59082931 -100.38085938 180.65039062 C-100.31624266 192.53644986 -100.28303599 204.42237425 -100.26953125 216.30859375 C-95.97953125 216.30859375 -91.68953125 216.30859375 -87.26953125 216.30859375 C-87.26953125 173.07859375 -87.26953125 129.84859375 -87.26953125 85.30859375 C-91.22953125 83.32859375 -95.18953125 81.34859375 -99.26953125 79.30859375 C-107.13399529 71.65959448 -110.63164966 65.30548066 -111.26171875 54.29296875 C-111.2839909 45.78500894 -108.4491571 39.04669109 -103.26953125 32.30859375 C-100.80335218 29.88317797 -98.25836469 28.04017412 -95.26953125 26.30859375 C-94.39748047 25.80005859 -94.39748047 25.80005859 -93.5078125 25.28125 C-86.39883702 21.93494267 -76.96133336 22.0126994 -69.51171875 24.0703125 C-67.31225458 25.01347256 -65.31490547 26.07014987 -63.26953125 27.30859375 C-61.69171875 28.14390625 -61.69171875 28.14390625 -60.08203125 28.99609375 C-54.56505827 33.53227154 -51.11859093 39.43823437 -49.26953125 46.30859375 C-48.18687223 57.63874624 -49.32371077 66.70940116 -56.51953125 75.68359375 C-59.98738184 79.38263438 -63.6390975 81.38004196 -68.26953125 83.30859375 C-70.24953125 84.29859375 -70.24953125 84.29859375 -72.26953125 85.30859375 C-72.26953125 128.53859375 -72.26953125 171.76859375 -72.26953125 216.30859375 C-67.97953125 216.30859375 -63.68953125 216.30859375 -59.26953125 216.30859375 C-59.26542236 214.30514893 -59.26131348 212.3017041 -59.25708008 210.23754883 C-59.23986812 203.6116615 -59.19534269 196.98615936 -59.13744068 190.36050892 C-59.10317688 186.34402337 -59.07806175 182.32791791 -59.07397461 178.3112793 C-59.06969018 174.43353602 -59.0412172 170.55665006 -58.99609947 166.67917442 C-58.98312879 165.20129074 -58.97881533 163.72330443 -58.98337746 162.24537086 C-58.98828731 160.17151428 -58.96218318 158.10015986 -58.92895508 156.02661133 C-58.92229324 154.84746658 -58.91563141 153.66832184 -58.9087677 152.45344543 C-58.07928713 148.3726497 -56.43899135 146.92567918 -53.26953125 144.30859375 C-52.17640625 143.66921875 -51.08328125 143.02984375 -49.95703125 142.37109375 C-48.31092714 141.19384902 -48.31092714 141.19384902 -47.26953125 139.30859375 C-46.95912872 135.77443921 -47.08996893 132.36381527 -47.234375 128.8203125 C-47.30662185 121.60365461 -44.91229843 116.06660408 -40.01171875 110.8125 C-33.73184374 105.39153166 -26.4104023 103.76586901 -18.26953125 104.30859375 C-11.35077923 105.86653968 -4.93206388 108.51482965 -0.76171875 114.45703125 C3.7662751 122.24518067 4.88312239 129.4793364 2.60546875 138.30859375 C0.39710629 145.06721001 -3.12204658 149.42293988 -9.45703125 152.68359375 C-16.19395224 155.73979065 -23.09914589 156.76850408 -30.2265625 154.2734375 C-32.05973642 153.49352356 -33.87521929 152.66979961 -35.6640625 151.79296875 C-38.39702428 151.05957958 -38.39702428 151.05957958 -41.39575195 152.41992188 C-43.80310123 154.13935475 -44.22760979 155.09128444 -44.79566956 158.03594971 C-44.96729269 161.71870958 -44.94235757 165.35713094 -44.85546875 169.04296875 C-44.84427264 170.40486786 -44.8357344 171.7667912 -44.82974243 173.12872314 C-44.8068752 176.70667701 -44.74797504 180.28316034 -44.68151855 183.86053467 C-44.62004763 187.51359157 -44.59271746 191.16688705 -44.5625 194.8203125 C-44.49822487 201.98381975 -44.39272249 209.14581305 -44.26953125 216.30859375 C-39.31953125 216.30859375 -34.36953125 216.30859375 -29.26953125 216.30859375 C-29.31335938 215.23480469 -29.3571875 214.16101563 -29.40234375 213.0546875 C-29.52201815 201.85132291 -29.52201815 201.85132291 -26.3984375 198.00390625 C-23.76752664 196.24435307 -21.07110855 194.78016693 -18.26953125 193.30859375 C4.90787686 177.59456298 21.20166888 155.31531145 28.73046875 128.30859375 C29.05015625 127.22191406 29.36984375 126.13523438 29.69921875 125.015625 C34.28236962 106.57693008 33.4960137 85.3862537 27.73046875 67.30859375 C27.51616211 66.62410156 27.30185547 65.93960938 27.08105469 65.234375 C22.50065681 51.0198069 15.54915263 38.60194688 5.73046875 27.30859375 C5.03179687 26.47714844 4.333125 25.64570312 3.61328125 24.7890625 C-15.10101878 3.11110998 -42.751945 -10.44739946 -71.26953125 -12.69140625 C-105.17476618 -14.55469688 -134.66002558 -2.81329067 -159.26953125 20.30859375 Z M-93.01953125 43.12109375 C-96.57528909 48.15841736 -97.88717828 52.06919084 -96.875 58.28515625 C-95.49912645 62.88323688 -92.65229918 66.15628714 -89.01953125 69.18359375 C-84.42035998 71.06507291 -79.96269961 72.07944695 -75.0859375 70.68359375 C-69.6734252 68.22801161 -65.9515034 64.67253805 -63.26953125 59.30859375 C-62.50318106 52.4365683 -63.14338973 47.88446067 -67.26953125 42.30859375 C-72.00402677 37.92052473 -75.71549082 36.99592697 -81.9921875 37.09765625 C-86.92380114 37.55444379 -89.63330665 39.6579095 -93.01953125 43.12109375 Z M-139.26953125 94.30859375 C-141.83459494 97.37012137 -142.26953125 98.7860449 -142.26953125 102.80859375 C-141.0905222 106.93512541 -139.53976609 108.59669169 -136.26953125 111.30859375 C-133.40344996 112.74163439 -131.45652342 112.6150353 -128.26953125 112.30859375 C-125.20481823 110.65836366 -122.96174218 109.25251775 -120.89453125 106.43359375 C-119.72756507 102.46590873 -119.79457484 99.44321183 -121.39453125 95.62109375 C-123.73045279 92.74012385 -125.82815656 91.64300434 -129.26953125 90.30859375 C-134.08080631 90.30859375 -135.54321247 91.37510876 -139.26953125 94.30859375 Z M-31.08203125 122.49609375 C-33.06991991 125.5302396 -33.37011455 128.7680616 -33.26953125 132.30859375 C-32.0112005 136.23162491 -30.92209979 137.83813736 -27.58203125 140.24609375 C-23.45833458 141.56878891 -20.36454315 141.82526482 -16.26953125 140.30859375 C-13.15523182 137.45934108 -11.60167118 135.30501355 -10.26953125 131.30859375 C-10.26953125 127.50298711 -11.21737583 125.49297285 -13.26953125 122.30859375 C-19.17517692 116.40294808 -24.79595326 118.37762886 -31.08203125 122.49609375 Z M-130.26953125 231.30859375 C-132.09715435 255.83791808 -132.09715435 255.83791808 -126.26953125 267.30859375 C-120.38074699 273.19737801 -115.96005016 275.54491474 -107.49487305 275.59912109 C-106.83399689 275.60583832 -106.17312073 275.61255554 -105.49221802 275.61947632 C-103.31765117 275.63839999 -101.14339396 275.64237778 -98.96875 275.64453125 C-97.44806291 275.65096379 -95.92737704 275.65769248 -94.4066925 275.66470337 C-91.22170139 275.67666254 -88.03681862 275.68038567 -84.85180664 275.67919922 C-80.78657218 275.67899626 -76.72203863 275.7062797 -72.65697002 275.74074364 C-69.51608643 275.76307135 -66.37536985 275.76703496 -63.23441505 275.76597977 C-61.73660686 275.76832762 -60.23879349 275.77710488 -58.74106407 275.7926445 C-45.93417009 275.92505445 -45.93417009 275.92505445 -35.24609375 269.37890625 C-34.57707031 268.41597656 -34.57707031 268.41597656 -33.89453125 267.43359375 C-33.43304688 266.79679687 -32.9715625 266.16 -32.49609375 265.50390625 C-26.32373921 254.45657105 -29.26953125 245.12927246 -29.26953125 231.30859375 C-62.59953125 231.30859375 -95.92953125 231.30859375 -130.26953125 231.30859375 Z M-115.26953125 290.30859375 C-109.42388619 300.5384726 -102.22677236 306.4133239 -90.94921875 310.05859375 C-79.75464 312.86698981 -69.15489205 311.29094024 -59.08203125 305.62109375 C-52.82551791 301.61971919 -47.60690839 296.98334804 -44.26953125 290.30859375 C-67.69953125 290.30859375 -91.12953125 290.30859375 -115.26953125 290.30859375 Z " fill="#3D8ABF" transform="translate(332.26953125,98.69140625)"/>
<path d="M0 0 C0.83244232 0.00021149 1.66488464 0.00042297 2.52255249 0.00064087 C15.85128428 0.03434406 28.49818419 0.96191691 41.4375 4.375 C42.57687012 4.66383057 42.57687012 4.66383057 43.73925781 4.95849609 C67.120162 10.9823752 89.39732575 21.49302472 108.4375 36.375 C109.84322266 37.46554688 109.84322266 37.46554688 111.27734375 38.578125 C121.40936937 46.6604869 131.19348376 55.35102571 139.4375 65.375 C140.53578125 66.64150391 140.53578125 66.64150391 141.65625 67.93359375 C164.35681013 94.4056077 177.35591228 119.38198389 176.0987854 154.70303726 C175.92692047 159.90894004 175.83688811 165.11656936 175.734375 170.32421875 C175.60325022 176.89760736 175.44875826 183.46690166 175.18945312 190.03662109 C174.17518711 216.50909473 173.81264159 236.19738713 192.11572266 256.65496826 C196.02919882 261.23972287 199.17765644 266.31701209 202.4375 271.375 C202.89261963 272.00582489 203.34773926 272.63664978 203.81665039 273.28659058 C206.69080285 277.51995546 207.21952159 281.51401784 206.99609375 286.50390625 C205.92375225 292.01559159 202.76588892 295.96114647 199.4375 300.375 C198.41478808 301.7560837 197.39269383 303.13762491 196.37109375 304.51953125 C193.82519272 307.9466762 191.25084887 311.35076761 188.6550293 314.74023438 C186.19980829 318.03683751 185.17717309 319.79669318 185.25 323.875 C185.26160156 324.75542969 185.27320313 325.63585937 185.28515625 326.54296875 C185.48939735 330.33975845 186.01055193 334.07829777 186.609375 337.83203125 C186.36611543 341.43116715 184.88759419 342.77931014 182.4375 345.375 C179.78027344 346.67700195 179.78027344 346.67700195 176.796875 347.61328125 C175.72695313 347.95810547 174.65703125 348.30292969 173.5546875 348.65820312 C172.44351562 348.99787109 171.33234375 349.33753906 170.1875 349.6875 C168.49753906 350.22600586 168.49753906 350.22600586 166.7734375 350.77539062 C163.99916838 351.65704395 161.2209531 352.52287715 158.4375 353.375 C161.45857868 355.8701419 164.56374402 358.2027901 167.7578125 360.46875 C168.54027344 361.02433594 169.32273437 361.57992188 170.12890625 362.15234375 C171.75651086 363.30446836 173.38674409 364.45288815 175.01953125 365.59765625 C176.18935547 366.43103516 176.18935547 366.43103516 177.3828125 367.28125 C178.08937988 367.77947266 178.79594727 368.27769531 179.52392578 368.79101562 C181.58807043 370.4996365 183.02085008 372.10086055 184.4375 374.375 C184.57440895 378.00308706 184.27869272 380.34492328 181.94140625 383.20703125 C180.76462995 384.36862334 179.5597725 385.50269691 178.32421875 386.6015625 C173.60703971 391.03551547 171.91449676 394.24985191 171.12890625 400.73046875 C171.03544418 401.43214676 170.94198212 402.13382477 170.84568787 402.85676575 C170.44926618 405.83361407 170.09000798 408.81455907 169.73120117 411.79614258 C167.19989733 432.38029681 167.19989733 432.38029681 160.7109375 437.82324219 C152.32135747 442.91500326 143.17318164 441.74136362 133.94921875 440.0625 C132.34878509 439.78736148 130.74819306 439.51314288 129.14746094 439.23974609 C128.32596558 439.09752625 127.50447021 438.9553064 126.65808105 438.80877686 C98.61556454 432.92123033 98.61556454 432.92123033 72.3515625 440.8125 C58.15106514 452.12937146 50.29260857 470.83649944 43.67431641 487.27001953 C42.51003769 490.09213783 41.6183502 492.1941498 39.4375 494.375 C36.48763162 494.57226746 33.63410876 494.64033467 30.68310547 494.62084961 C29.75674915 494.62202097 28.83039284 494.62319233 27.87596512 494.62439919 C24.72707947 494.62414787 21.57852038 494.60761842 18.4296875 494.58984375 C16.16087862 494.58328587 13.89206962 494.57677161 11.6232605 494.57029724 C-18.31911034 494.44546524 -48.25610688 493.75432434 -78.19045854 493.09539735 C-84.70969668 492.95231906 -91.22906355 492.81601593 -97.74847972 492.68132645 C-104.91670546 492.5331155 -112.08483744 492.3807707 -119.2529335 492.22642326 C-122.25653749 492.16179299 -125.26016478 492.09848875 -128.26382065 492.03631783 C-132.43232834 491.94978337 -136.60067973 491.85714977 -140.76904297 491.76391602 C-141.9793367 491.73945908 -143.18963043 491.71500214 -144.43659973 491.68980408 C-147.81334299 491.61147057 -151.18710449 491.49756025 -154.5625 491.375 C-155.75169163 491.35147902 -156.94088326 491.32795803 -158.16611099 491.30372429 C-159.32390942 491.25734888 -160.48170784 491.21097347 -161.67459106 491.16319275 C-162.71028292 491.13189742 -163.74597477 491.10060209 -164.81305122 491.06835842 C-168.50292832 490.13784196 -169.58887756 488.55596536 -171.5625 485.375 C-171.74586188 478.33390363 -168.02033698 471.72628623 -165.3125 465.375 C-164.77414654 464.09377593 -164.23664758 462.81219252 -163.69995117 461.53027344 C-161.44067454 456.14333371 -159.15562865 450.76738846 -156.86767578 445.39257812 C-134.94048759 395.7120331 -134.94048759 395.7120331 -128.42626953 342.36035156 C-128.52485443 340.1999642 -128.54419647 338.03548056 -128.51464844 335.87304688 C-128.91913755 325.82865272 -131.68070312 320.92793468 -138.90655518 314.0340271 C-140.93637786 312.16302442 -142.9940828 310.32818573 -145.0625 308.5 C-156.26757032 298.44657682 -164.00735822 288.97707971 -170.5625 275.375 C-171.0560498 274.40256348 -171.54959961 273.43012695 -172.05810547 272.42822266 C-173.1792065 270.18101771 -174.23323851 267.92102106 -175.25 265.625 C-175.61246826 264.80829834 -175.97493652 263.99159668 -176.34838867 263.15014648 C-195.23249437 219.42703934 -198.16921219 167.46470398 -180.55761719 122.828125 C-167.68669395 91.68308619 -148.01747191 64.367192 -121.5625 43.375 C-120.54929687 42.55644531 -119.53609375 41.73789062 -118.4921875 40.89453125 C-97.22126185 23.91669895 -71.58087128 11.66177701 -45.25 5 C-43.83847656 4.64204346 -43.83847656 4.64204346 -42.3984375 4.27685547 C-28.29752222 0.90521546 -14.42937507 -0.03401669 0 0 Z M-34.5625 18.375 C-35.34206055 18.54128906 -36.12162109 18.70757813 -36.92480469 18.87890625 C-69.8127469 26.16634523 -98.82729453 42.79707707 -123.5625 65.375 C-124.38105469 66.12136719 -125.19960937 66.86773437 -126.04296875 67.63671875 C-132.62383581 73.93804456 -138.1024127 81.10864974 -143.5625 88.375 C-144.201875 89.21933594 -144.84125 90.06367187 -145.5 90.93359375 C-171.10053761 126.07507246 -181.6654605 170.76533564 -175.04516602 213.66748047 C-172.38181305 229.0738165 -167.96090707 244.10988089 -161.5625 258.375 C-161.25022461 259.08027832 -160.93794922 259.78555664 -160.61621094 260.51220703 C-159.61233097 262.76480378 -158.59160024 265.00882107 -157.5625 267.25 C-157.2545752 267.92780518 -156.94665039 268.60561035 -156.62939453 269.30395508 C-155.66106565 271.36083823 -154.63487025 273.37043705 -153.5625 275.375 C-153.21606445 276.02670166 -152.86962891 276.67840332 -152.51269531 277.34985352 C-146.88043514 286.76084422 -138.02821066 294.04837257 -130.20117188 301.59936523 C-128.16208281 303.57205539 -126.13537881 305.55685545 -124.109375 307.54296875 C-123.48230652 308.13998093 -122.85523804 308.7369931 -122.20916748 309.35209656 C-113.16265923 318.24315763 -113.79615423 332.06220995 -113.49414062 344.09960938 C-113.33904882 386.43967251 -131.77747254 426.0417621 -148.24414062 464.14135742 C-148.53383224 464.81467102 -148.82352386 465.48798462 -149.12199402 466.18170166 C-149.90626331 468.0031841 -150.69480597 469.82282488 -151.48364258 471.64233398 C-152.68490587 474.19539103 -152.68490587 474.19539103 -152.5625 476.375 C-135.19919593 476.77223813 -117.83576921 477.16357422 -100.47218704 477.54845428 C-92.40441021 477.72741224 -84.33668024 477.90811102 -76.26904297 478.09326172 C-66.9346893 478.30723845 -57.60024119 478.51653132 -48.265625 478.71875 C-47.50711809 478.73518177 -46.74861118 478.75161354 -45.96711922 478.76854324 C-20.49745126 479.3170356 4.96149427 479.58465251 30.4375 479.375 C30.89858154 478.30266113 31.35966309 477.23032227 31.8347168 476.12548828 C32.45605786 474.69036058 33.07756754 473.25530588 33.69921875 471.8203125 C34.00114136 471.11688721 34.30306396 470.41346191 34.61413574 469.6887207 C42.46463297 451.61226059 53.52956704 432.30776723 71.78515625 423.3828125 C90.5168414 416.26532389 111.46293592 420.95826271 130.56298828 424.24023438 C131.36849625 424.37804321 132.17400421 424.51585205 133.00392151 424.65783691 C134.52079814 424.91973685 136.03678097 425.18689064 137.55162048 425.46032715 C144.54868728 426.94619473 144.54868728 426.94619473 151.21875 425.37109375 C153.10661247 422.27911386 153.43940982 418.9636324 153.9375 415.4375 C154.0622168 414.65205811 154.18693359 413.86661621 154.31542969 413.05737305 C154.99545462 408.70872494 155.56291107 404.35902932 156.046875 399.984375 C156.15451172 399.09999756 156.26214844 398.21562012 156.37304688 397.30444336 C156.57755748 395.60246417 156.75732415 393.89726668 156.90820312 392.18969727 C157.71345082 385.66705766 160.41215234 382.4912773 165.4375 378.375 C160.95487088 374.69348332 156.27111063 371.32012258 151.5625 367.9375 C150.78519531 367.37740234 150.00789063 366.81730469 149.20703125 366.24023438 C147.67756427 365.1387611 146.14667564 364.03925874 144.61425781 362.94189453 C143.19557827 361.92068711 141.78309911 360.89079299 140.37792969 359.85107422 C137.23863236 357.25937771 137.23863236 357.25937771 133.4375 356.375 C133.35618537 354.93844146 133.29816441 353.5005517 133.25 352.0625 C133.21519531 351.26199219 133.18039062 350.46148437 133.14453125 349.63671875 C133.52637505 346.68888461 134.0897417 346.19999701 136.4375 344.375 C139.01522269 343.36947181 141.53137365 342.49087401 144.16796875 341.67578125 C144.91838943 341.4358696 145.66881012 341.19595795 146.44197083 340.94877625 C148.83365709 340.18633298 151.22916264 339.43678474 153.625 338.6875 C155.24961746 338.17206952 156.87396997 337.6558031 158.49804688 337.13867188 C162.47485791 335.87440283 166.45514215 334.62168141 170.4375 333.375 C170.39109375 332.240625 170.3446875 331.10625 170.296875 329.9375 C169.84765473 314.54244691 169.84765473 314.54244691 174.4375 308.375 C174.96359863 307.61783691 175.48969727 306.86067383 176.03173828 306.08056641 C177.80939085 303.57918005 179.64313129 301.13054533 181.5 298.6875 C183.83089215 295.59648203 186.14470118 292.49436805 188.4375 289.375 C189.45650391 288.00408203 189.45650391 288.00408203 190.49609375 286.60546875 C191.69861808 284.413504 191.69861808 284.413504 190.79614258 282.19750977 C189.04703436 278.5638278 186.89836589 275.319434 184.640625 271.984375 C183.93374542 270.92830048 183.93374542 270.92830048 183.21258545 269.85089111 C181.7085518 267.60598784 180.19817005 265.36544138 178.6875 263.125 C177.68707227 261.63440157 176.68706808 260.14351878 175.6875 258.65234375 C175.20140259 257.92785034 174.71530518 257.20335693 174.21447754 256.45690918 C173.25476293 255.02611046 172.29568856 253.59488208 171.33728027 252.16320801 C169.39493364 249.26611654 167.44314699 246.38300036 165.43164062 243.53320312 C164.89216797 242.76427734 164.35269531 241.99535156 163.796875 241.203125 C163.35311523 240.58856445 162.90935547 239.97400391 162.45214844 239.34082031 C159.54497123 233.70833935 160.50850535 227.32935505 160.859375 221.21875 C161.58918127 206.32605923 161.65992831 191.44329144 161.67773438 176.53613281 C161.68326596 172.63267592 161.70747807 168.72955941 161.73570633 164.82621002 C161.75451734 161.754548 161.75954737 158.68296653 161.76107025 155.61125183 C161.76404098 154.17309143 161.77187235 152.73493042 161.78525543 151.29682922 C162.09824628 115.18136396 141.77545708 89.28579704 117.4375 64.375 C86.44748741 33.28168736 44.49014992 15.22559496 0.625 15.125 C-11.37621641 15.12876591 -22.82648318 15.85197988 -34.5625 18.375 Z " fill="#4385BC" transform="translate(248.5625,8.625)"/>
</svg>
